<?xml version="1.0" encoding="utf-8"?>
<!-- Generator: Adobe Illustrator 26.2.1, SVG Export Plug-In . SVG Version: 6.00 Build 0)  -->
<svg version="1.1" id="Layer_1" xmlns="http://www.w3.org/2000/svg" xmlns:xlink="http://www.w3.org/1999/xlink" x="0px" y="0px"
	 viewBox="0 0 569.9 161.7" style="enable-background:new 0 0 569.9 161.7;" xml:space="preserve">
<style type="text/css">
	.st0{fill:#331331;}
	.st1{fill:url(#SVGID_1_);}
	.st2{fill:url(#SVGID_00000135649531599025036740000018237130964025966247_);}
	.st3{fill:url(#SVGID_00000077300859643249680800000003699191564988952466_);}
	.st4{fill:url(#SVGID_00000125592944809249031310000014491778401095342514_);}
	.st5{fill:url(#SVGID_00000125561856185236220610000000672311181540693145_);}
	.st6{fill:url(#SVGID_00000119093156655225450470000009704447527441432716_);}
	.st7{fill:url(#SVGID_00000147915997322743834640000011941732617545614752_);}
	.st8{fill:url(#SVGID_00000086654931683754175380000011402775355905887676_);}
</style>
<g>
	<path class="st0" d="M507.7,84.1c2.1,3,4.8,5.5,7.9,7.1l-3-7.1H507.7z"/>
	<path class="st0" d="M506.1,68.3c0,0.1,0.1,0.3,0.1,0.4c0.5,2,0.9,4,1,6h1.5L506.1,68.3z"/>
	<path class="st0" d="M547.9,65.6c-1.6-5.8-5.3-10.6-10.5-13.5c-3.4-1.9-7.2-2.9-11-2.9c-2,0-4,0.3-6,0.8c-2.3,0.6-4.5,1.6-6.4,2.9
		l17.2,40.5c0.4-0.1,0.7-0.1,1.1-0.2C544.1,89.9,551.1,77.5,547.9,65.6z"/>
	<path class="st0" d="M488.8,53.6c-4.1-2.4-8.7-3.6-13.3-3.6c-2.4,0-4.8,0.3-7.2,1c-4.3,1.2-8,3.3-11,6.1c0,0.2,0,0.5,0,0.7
		c0,7-2.4,12.8-6.4,17c1.2,4.8,1.2,9.6,0.3,14.2c1.5,3,3.5,5.7,5.9,7.9l33.1-42.5C489.7,54.2,489.3,53.9,488.8,53.6z"/>
	<path class="st0" d="M501.5,70c-0.3-1.2-0.7-2.3-1.2-3.4c-0.7-1.6-1.5-3.2-2.5-4.7l-27.3,35.6h-12.8c1.3,1.2,2.8,2.2,4.4,3.1
		c6.3,3.6,13.6,4.5,20.5,2.6c9.6-2.6,16.5-10.2,18.9-19.1h-12.9l7.3-9.5h4.1h2h0.3c-0.1-1.1-0.3-2.1-0.5-3.2
		C501.8,70.9,501.7,70.5,501.5,70z"/>
	<path class="st0" d="M427.8,82.1h-17.7l1.8-10.4h22c3.8,0,6.8-1.4,8.7-3.7c-5.1-8.2-14.1-13.2-23.7-13.2c-2.4,0-4.9,0.3-7.4,1
		c-1.4,0.4-2.8,0.9-4.2,1.5l-7.1,40.2h-2c-0.3,0.9-0.6,1.8-1,2.6c2.2,2.7,4.8,5,7.9,6.7c6.5,3.7,14,4.6,21.2,2.7
		c7-1.9,12.5-6.3,16.1-12h-3.6L427.8,82.1z"/>
	<path class="st0" d="M446,78.6c-0.8,0.4-1.5,0.8-2.4,1.2c-0.5,0.2-1,0.4-1.5,0.6l1.9,2.3l2.6,3.1c0.1-0.7,0.1-1.3,0.2-2
		c0.1-1.8,0-3.7-0.3-5.5C446.3,78.4,446.2,78.5,446,78.6z"/>
	<path class="st0" d="M372.8,60.3c0-0.2,0-0.4,0-0.6c-1.8-0.4-3.6-0.6-5.5-0.6c-2.4,0-4.9,0.3-7.4,1c-6.8,1.9-12.3,6.1-15.9,11.6
		h17.6C368.6,71.7,372.8,67.1,372.8,60.3z"/>
	<path class="st0" d="M389.6,97.5h-1.5l0.4-2.3l0.9-5.2l1.7-9.6l0.9-5.1l0.1-0.7c-0.5-1-1-1.9-1.6-2.8c-0.5-0.8-1.1-1.7-1.7-2.4
		c-1.4-1.7-3-3.3-4.8-4.6c-2,7.6-7.2,13.1-14.3,15.7l14,17.1h-17.3l-11.1-15.5h-6.2c0.1,0.3,0.2,0.6,0.3,1
		c2.2,8.1,1.2,16.2-2.3,23.2c6.8,7,17.2,10.3,27.3,7.5c7.4-2,13.3-6.9,16.8-13.1c0.5-0.9,0.9-1.8,1.3-2.7c0.1-0.1,0.1-0.3,0.2-0.4
		h-0.4H389.6z"/>
	<path class="st0" d="M344,82.1h-4.1h-2.1l0.9-5.2l0.5-3c-0.4-0.5-0.9-1-1.3-1.5c-1.5-1.5-3.1-2.8-4.8-3.9l-5.1,29.1h-12.1l5.9-33.3
		c-1.2-0.2-2.4-0.3-3.7-0.3c-2.1,0-4.3,0.3-6.4,0.8l-1.6,8.7h-12.4c2.9,3.4,5.1,7.4,6.5,11.9h6.2l-2.2,12.2h-2.5
		c-0.3,5.6-2.1,11.1-5,15.8c1.1,0.9,2.3,1.8,3.6,2.5c6.4,3.7,13.9,4.6,21.1,2.6c6.8-1.9,12.3-6.2,15.9-11.7c0.5-0.8,1-1.5,1.4-2.4
		c0.4-0.9,0.8-1.7,1.2-2.6c2.1-5.4,2.6-11.5,1-17.4C344.5,83.6,344.3,82.8,344,82.1z"/>
	<path class="st0" d="M261.6,68.1c-4.1,1.5-7.8,3.8-10.8,6.8c3.2,3.8,5.7,8.3,7.3,13.2L261.6,68.1z"/>
	<path class="st0" d="M288.5,85.3h2.5h7.6c-1.1-2.9-2.6-5.5-4.4-7.8c-0.5-0.7-1.1-1.3-1.7-2c-0.6-0.6-1.2-1.2-1.8-1.8
		c-0.1-0.1-0.2-0.2-0.3-0.3h-17.5l-2.1,11.9h15.2H288.5z"/>
	<path class="st0" d="M288.4,97.5h-2.6h-25.9c0.5,7.5-1.2,14.9-5,21.6c0,0.1-0.1,0.1-0.1,0.2c0.7,0.5,1.5,1,2.2,1.4
		c6.8,3.8,14.6,4.8,22.1,2.8c6.1-1.7,11.1-5.2,14.8-9.7c0.5-0.7,1.1-1.3,1.5-2.1c0.5-0.7,0.9-1.5,1.4-2.2c2-3.7,3.3-7.8,3.6-12h-9.4
		H288.4z"/>
	<path class="st0" d="M219.7,67c-2.4,0.1-4.9,0.5-7.3,1.1c-1.5,0.4-2.9,0.9-4.2,1.5l3,10.5L219.7,67z"/>
	<path class="st0" d="M249.4,83.1l1.2,14.4h-8.3h-2.6h-1.1l-0.7-9.7l-1.2-16.9c-1.7-0.9-3.5-1.7-5.3-2.3l-16.6,25.1
		c-1.7,2.6-3.5,4.1-6,4.5c1.5,10.2-1.1,20.4-6.9,28.4c7.8,5.6,17.9,7.7,27.9,5c7-1.9,13.1-6.1,17.4-11.8c0.5-0.7,1-1.4,1.5-2.2
		c0.3-0.5,0.7-1,1-1.5c0.1-0.3,0.3-0.5,0.4-0.8c4-7.5,5-16,2.7-24.2C252.1,88.3,250.9,85.6,249.4,83.1z"/>
	<path class="st0" d="M150.3,77.9c-1.1,0.8-2.1,1.8-3.1,2.7c0.8,0.8,1.5,1.6,2.2,2.4L150.3,77.9z"/>
	<path class="st0" d="M202.2,95.3c-1.5-5.5-4.3-10.3-8.1-14.1c-0.7-0.7-1.4-1.4-2.2-2c-0.8-0.6-1.5-1.3-2.3-1.8
		c-0.8-0.5-1.6-1.1-2.4-1.5l-9.7,21.8h-12L177,71.7c-2.1-0.4-4.3-0.7-6.5-0.7c-2.3,0-4.6,0.2-6.9,0.7L159,97.5h-2
		c0,0.1,0,0.1,0.1,0.2c2.7,10,1.4,20.5-3.7,29.5c-0.7,1.2-1.4,2.3-2.2,3.4c0.9,0.7,1.9,1.3,3,1.9c7.6,4.3,16.5,5.5,25,3.1
		c5.7-1.6,10.6-4.5,14.5-8.4c0.7-0.7,1.4-1.4,2-2.2c0.6-0.8,1.2-1.6,1.8-2.4C202.8,115,204.9,105,202.2,95.3z"/>
	<path class="st0" d="M151.4,99.3c-0.2-0.6-0.4-1.2-0.6-1.8h-4l1.1-6.3c-1.3-2.2-2.8-4.2-4.5-6c-0.7-0.7-1.4-1.4-2.2-2.1
		c-0.7-0.6-1.5-1.3-2.3-1.8c-2-1.4-4.1-2.6-6.3-3.6l3.5,8.2l1.5,3.6l1.7,3.9l1.7,4.1h-2.8h-3h-3h-5.8l-5.6-13.4H97.1
		c-2.3,2.2-4.3,4.7-5.9,7.6c5.2,11.9,3.3,23.2,3.2,23.4l0,0c-0.2,3.7-0.9,7.4-2.2,11c2.8,4.3,6.6,8,11.3,10.6
		c7.6,4.3,16.5,5.5,25,3.1c5.6-1.5,10.5-4.5,14.5-8.4c0.7-0.7,1.4-1.4,2-2.2c0.6-0.8,1.2-1.5,1.8-2.4c0.6-0.8,1.1-1.6,1.6-2.5
		C152.6,116.7,153.7,107.8,151.4,99.3z"/>
	<path class="st0" d="M87.5,107.8c-0.3,1.2-0.6,2.4-1.1,3.6c-0.4,1-0.9,2-1.4,3c-0.3,0.5-0.6,1-0.8,1.4c-0.7,1.2-1.4,2.3-2.2,3.4
		c-3.9,5.5-9,10.2-15.2,12.8c3.2-2.6,5.7-5.9,7.6-9.3c4.4-8.2,6.6-18,0.8-25c-0.3-0.4-0.6-0.8-1-1.1c-0.1-0.1-0.3-0.3-0.4-0.4
		c-0.1-0.1-0.2-0.2-0.3-0.3c-0.2-0.2-0.5-0.4-0.7-0.6c-0.1,0-0.1-0.1-0.2-0.1c-0.1,0-0.1-0.1-0.2-0.2c-0.3-0.2-0.5-0.4-0.8-0.6
		c0,0,0,0,0,0c-1-0.7-2-1.5-3-2.3c-0.9-0.6-1.7-1.2-2.3-1.7c-3.5-2.6-7.7-5.3-11.8-7.9c-1.2-0.7-2.3-1.4-3.2-2
		c-1.6,0.2-3.3,0.5-4.9,0.9c-2.7,0.7-5.3,1.9-7.7,3.2c-5,2.9-9.3,7-12.2,12.2c-0.2,0.3-0.3,0.6-0.4,0.8c-4,7.4-5,16-2.7,24.1
		c2.3,8.5,7.8,15.5,15.4,19.9c7.6,4.3,16.5,5.5,25,3.1c8.5-2.3,15.5-7.8,19.9-15.4c0.5-0.9,1-1.8,1.4-2.7c0.6-1.2,1-2.5,1.4-3.8
		c0.5-1.7,0.9-3.5,1.2-5.2C88.1,114.4,88,111.1,87.5,107.8z"/>
	<linearGradient id="SVGID_1_" gradientUnits="userSpaceOnUse" x1="-566.3287" y1="187.3241" x2="317.5829" y2="36.0761">
		<stop  offset="0" style="stop-color:#00FCFF"/>
		<stop  offset="1" style="stop-color:#E2F100"/>
	</linearGradient>
	<path class="st1" d="M135.2,97.5h3h2.8l-1.7-4.1l-1.7-3.9l-1.5-3.6l-3.5-8.2L131,74l-1.5-3.5l-11.3-26.6c-1-2.3-2.5-3.9-5.2-3.9
		c-2.7,0-4.8,1.6-6.6,3.9L80.3,77.5c3.1,2.5,5.5,5.3,7.4,8.1l21.8-28.4l5.2,12.4l1.2,2.9l0.9,2.2h-10.3H104l-1.4,1.9l-5.8,7.6h0.3
		h23.7l5.6,13.4h5.8H135.2z"/>
	
		<linearGradient id="SVGID_00000018938723064318221290000009112290510064026014_" gradientUnits="userSpaceOnUse" x1="-565.3756" y1="192.8938" x2="318.5359" y2="41.6458">
		<stop  offset="0" style="stop-color:#00FCFF"/>
		<stop  offset="1" style="stop-color:#E2F100"/>
	</linearGradient>
	<polygon style="fill:url(#SVGID_00000018938723064318221290000009112290510064026014_);" points="151.7,70 151,73.8 150.3,77.9 
		149.4,83.1 148.7,87 148,91.2 146.9,97.5 150.8,97.5 153.9,97.5 157.1,97.5 159,97.5 163.6,71.8 164.1,68.7 164.7,65.6 169,40.7 
		156.9,40.7 	"/>
	
		<linearGradient id="SVGID_00000033333039291149828360000009157506884049230752_" gradientUnits="userSpaceOnUse" x1="-563.5897" y1="203.3308" x2="320.3218" y2="52.0827">
		<stop  offset="0" style="stop-color:#00FCFF"/>
		<stop  offset="1" style="stop-color:#E2F100"/>
	</linearGradient>
	<path style="fill:url(#SVGID_00000033333039291149828360000009157506884049230752_);" d="M248.9,77.2l0-0.1l-0.3-3.6l-0.1-1.1
		l-0.2-2.3l-2.2-25.2c-0.3-3.3-2-4.9-4.9-4.9c-2.6,0-4.8,1.5-6.5,4.1l-11.2,17.1l-1.9,2.9l-1.9,3l-8.6,13.2l-3-10.5l-0.8-2.9
		l-0.8-2.9L201,44.1c-0.7-2.6-2.8-4.1-5.4-4.1c-3.1,0-5.4,1.6-6.8,4.9l-9.4,21.3l-1.2,2.8l-1.2,2.8l-11.4,25.8h12l9.7-21.8l1.2-2.7
		l1.2-2.7l3.8-8.6l2.4,8.7l0.9,3.2l0.7,2.6l0.2,0.6l1.7,6.1l3.1,10.9c0.6,2.1,1.7,3.6,3.3,4.2c0.6,0.2,1.3,0.3,2,0.3
		c0.3,0,0.7,0,1-0.1c2.5-0.3,4.3-1.9,6-4.5l16.6-25.1l1.7-2.5l1.7-2.5l1.3-1.9l0.2,2.5l0.2,3.4l0.2,3.4l1.2,16.9l0.7,9.7h1.1h2.6
		h8.3l-1.2-14.4L248.9,77.2z"/>
	
		<linearGradient id="SVGID_00000170974789559937008320000001547238131721591938_" gradientUnits="userSpaceOnUse" x1="-561.6969" y1="214.3928" x2="322.2146" y2="63.1448">
		<stop  offset="0" style="stop-color:#00FCFF"/>
		<stop  offset="1" style="stop-color:#E2F100"/>
	</linearGradient>
	<polygon style="fill:url(#SVGID_00000170974789559937008320000001547238131721591938_);" points="300.8,63.9 284.6,63.9 
		274.5,63.9 275,61.4 276.5,52.9 315.9,52.9 318,40.7 266.5,40.7 262.7,62.3 262.1,65.2 261.6,68.1 258.1,88.1 256.8,95.8 
		256.5,97.5 257,97.5 259.9,97.5 285.8,97.5 288.4,97.5 290.9,97.5 300.4,97.5 303,97.5 305.6,97.5 308.1,97.5 310.3,85.3 
		304.1,85.3 301.4,85.3 298.6,85.3 291,85.3 288.5,85.3 285.9,85.3 270.8,85.3 272.8,73.5 290.3,73.5 290.9,73.5 293.9,73.5 
		294.2,73.5 297.1,73.5 297.7,73.5 310,73.5 311.6,64.7 311.8,63.9 306.3,63.9 	"/>
	
		<linearGradient id="SVGID_00000000216465005455701080000008354091964867200405_" gradientUnits="userSpaceOnUse" x1="-559.7758" y1="225.6197" x2="324.1357" y2="74.3716">
		<stop  offset="0" style="stop-color:#00FCFF"/>
		<stop  offset="1" style="stop-color:#E2F100"/>
	</linearGradient>
	<path style="fill:url(#SVGID_00000000216465005455701080000008354091964867200405_);" d="M333.1,68.4l0.5-2.6l0.5-2.6l1.8-10.3H365
		c2,0,3.7,0.4,5,1.3c1,0.7,1.8,1.6,2.3,2.8c0.3,0.8,0.5,1.7,0.5,2.6c0,0.2,0,0.4,0,0.6c0,6.8-4.1,11.4-11.2,11.4H344h-0.2h-2.8h-0.4
		h-1l-0.4,2.2l-0.5,3l-0.9,5.2h2.1h4.1h2.6h2.6h6.2l11.1,15.5h17.3l-14-17.1c7.1-2.6,12.3-8.1,14.3-15.7c0.2-0.9,0.4-1.8,0.6-2.7
		c0.1-0.9,0.2-1.8,0.3-2.8c0-0.5,0-0.9,0-1.4c0-10.5-6.3-17.1-17.9-17.1h-41.2l-3.3,18.6l-0.4,2.4l-0.4,2.5l-5.9,33.3h12.1
		L333.1,68.4z"/>
	
		<linearGradient id="SVGID_00000093138708854066045140000006862900196993280955_" gradientUnits="userSpaceOnUse" x1="-557.7181" y1="237.6453" x2="326.1934" y2="86.3972">
		<stop  offset="0" style="stop-color:#00FCFF"/>
		<stop  offset="1" style="stop-color:#E2F100"/>
	</linearGradient>
	<path style="fill:url(#SVGID_00000093138708854066045140000006862900196993280955_);" d="M448.7,88.5l-0.9-1.1l-1.2-1.5l-2.6-3.1
		l-1.9-2.3c0.5-0.2,1-0.4,1.5-0.6c0.8-0.4,1.6-0.8,2.3-1.2c0.2-0.1,0.3-0.2,0.5-0.3c0.7-0.4,1.3-0.8,2-1.3c0.1-0.1,0.2-0.2,0.3-0.2
		c0.8-0.6,1.5-1.2,2.1-1.9c4-4.2,6.4-10,6.4-17c0-0.2,0-0.5,0-0.7c0-1-0.1-2-0.3-3c-0.1-0.9-0.4-1.7-0.6-2.6
		c-2.1-6.8-7.9-10.8-17-10.8h-41.2l-3.5,19.7l-0.9,5.2l-0.3,1.5l-0.6,3.5l-0.7,3.9l-0.1,0.7l-0.9,5.1l-1.7,9.6l-0.9,5.2l-0.4,2.3
		h1.5h2.9h0.4h2.4h0.3h2.7h2l7.1-40.2l0.5-3l0.3-1.4h4.7h12.3h7.8h4.3c5,0,7.8,2.6,7.8,7.3c0,0.8-0.1,1.5-0.2,2.2
		c-0.2,1.1-0.5,2.2-0.9,3.1c-0.4,0.9-0.9,1.7-1.4,2.4c-1.9,2.3-4.9,3.7-8.7,3.7h-22l-1.8,10.4h17.7l11.1,15.5h3.6h3h2.8h2.7h3.2h2
		l-5.4-6.6L448.7,88.5z"/>
	
		<linearGradient id="SVGID_00000010997055864815139350000014040586886131674031_" gradientUnits="userSpaceOnUse" x1="-555.1801" y1="252.478" x2="328.7315" y2="101.2299">
		<stop  offset="0" style="stop-color:#00FCFF"/>
		<stop  offset="1" style="stop-color:#E2F100"/>
	</linearGradient>
	<path style="fill:url(#SVGID_00000010997055864815139350000014040586886131674031_);" d="M531.9,95.2l-0.8-1.9l-17.2-40.5l-0.8-1.9
		l-0.8-1.9l-2.2-5.2c-1-2.3-2.5-3.9-5.2-3.9c-2.7,0-4.8,1.6-6.6,3.9l-5.2,6.7l-1.5,1.9l-1.5,1.9L457.1,97l-0.4,0.5h1h12.8l27.3-35.6
		l1.5-2l1.5-2l0.6-0.7l1.2,2.7l0.7,1.7l0.4,0.8l1.2,2.8l1.3,3.1l2.7,6.3h-1.5h-2.4h-0.7h-1.7h-0.3h-2H496l-7.3,9.5h12.9h1.5h1.1h1.2
		h1.2h1.1h4.9l3,7.1l1.2,2.8l1.1,2.6l0.4,0.9h3.3h9.4h1.9l-0.2-0.4L531.9,95.2z"/>
	
		<linearGradient id="SVGID_00000121277040764026270250000013242097489860121733_" gradientUnits="userSpaceOnUse" x1="-566.528" y1="186.1591" x2="317.3835" y2="34.911">
		<stop  offset="0" style="stop-color:#00FCFF"/>
		<stop  offset="1" style="stop-color:#E2F100"/>
	</linearGradient>
	<path style="fill:url(#SVGID_00000121277040764026270250000013242097489860121733_);" d="M87.7,98.5c-0.3-1.7-0.7-3.3-1.3-4.9
		c-0.4-1.2-1-2.3-1.5-3.5c-0.1-0.2-0.3-0.5-0.4-0.7c-0.7-1.2-1.5-2.4-2.4-3.6l0,0l0,0c-1.2-1.2-2.5-2.5-3.9-3.7
		c-0.4-0.3-0.7-0.6-1.1-0.9c-0.8-0.7-1.6-1.3-2.5-2c-1.2-0.9-2.5-1.8-3.7-2.7c-4.7-3.2-7.7-5.2-12.2-7.8C65.3,59.6,93,21.8,93,21.8
		H76.8L46,63.8l-5,7.9l6-34.1l-16.3,3.5l-9.3,52.8c4.3-7.4,10.7-13.1,18.5-16.4l0.4-2.4c0.7,0.2,1.7,0.5,3,1.1c1.1,0.5,2.4,1.1,4,2
		c0.6,0.3,1.3,0.7,2,1.1c0.6,0.4,1.2,0.7,1.9,1.2c0.9,0.6,2,1.2,3.2,2c4.2,2.6,8.4,5.3,11.8,7.9c0.6,0.5,1.5,1.1,2.3,1.7
		c1,0.7,2.1,1.5,3,2.3c0,0,0,0,0,0c0.3,0.2,0.6,0.4,0.8,0.6c0.1,0.1,0.1,0.1,0.2,0.2c0.1,0,0.1,0.1,0.2,0.1c0.3,0.2,0.5,0.4,0.7,0.6
		c0.1,0.1,0.2,0.2,0.3,0.3c0.1,0.1,0.3,0.3,0.4,0.4c0.4,0.4,0.7,0.7,1,1.1c5.8,7.1,3.6,16.8-0.8,25c-1.9,3.4-4.4,6.7-7.6,9.3
		c6.1-2.6,11.2-7.3,15.2-12.8c0.8-1.1,1.5-2.2,2.2-3.4c0.3-0.5,0.6-0.9,0.8-1.4c0.6-1,1-2,1.4-3c0.5-1.2,0.8-2.4,1.1-3.6
		c0.3-1.3,0.5-2.6,0.5-3.8C88.1,102.2,88,100.3,87.7,98.5C87.7,98.5,87.7,98.5,87.7,98.5z"/>
</g>
</svg>
